<svg width="130" height="49" viewBox="0 0 130 49" fill="none" xmlns="http://www.w3.org/2000/svg">
<g clip-path="url(#clip0_242_5250)">
<path d="M109.175 35.1371H110V39.8701C110 40.8283 109.813 41.5735 109.438 42.1058C109.02 42.7019 108.395 43 107.564 43C106.821 43 106.268 42.832 105.906 42.496C105.553 42.1783 105.316 41.7268 105.241 41.2269H106.196C106.244 41.5418 106.41 41.783 106.693 41.9505C106.95 42.0896 107.233 42.1579 107.518 42.1496C108.05 42.1496 108.459 41.9697 108.745 41.6098C109.031 41.25 109.174 40.769 109.175 40.1669V39.7994C108.675 40.3571 108.123 40.6359 107.518 40.6359C106.774 40.6359 106.169 40.372 105.703 39.8441C105.237 39.3162 105.003 38.6358 105 37.8028C104.994 37.4357 105.054 37.0709 105.176 36.7302C105.298 36.3894 105.48 36.0796 105.711 35.8192C105.935 35.5539 106.207 35.3441 106.508 35.2031C106.809 35.0621 107.133 34.9931 107.459 35.0005C108.107 35.0005 108.68 35.2805 109.179 35.8403L109.175 35.1371ZM105.85 37.8028C105.85 38.3767 106.009 38.8491 106.327 39.2198C106.646 39.5905 107.057 39.7758 107.561 39.7758C107.997 39.7758 108.381 39.5783 108.714 39.1832C109.047 38.7881 109.212 38.3456 109.21 37.8556C109.212 37.3442 109.038 36.8516 108.723 36.4809C108.577 36.2911 108.396 36.1392 108.192 36.0359C107.988 35.9325 107.766 35.8802 107.542 35.8826C107.319 35.8798 107.097 35.9289 106.892 36.0269C106.686 36.1248 106.501 36.2695 106.348 36.4517C106.188 36.6277 106.061 36.8381 105.975 37.0703C105.89 37.3025 105.847 37.5516 105.85 37.8028Z" fill="#72B63B"/>
<path d="M111.853 40H111V35.0868H111.794V35.7181C112.149 35.2399 112.551 35.0005 113 35V35.8717C112.235 35.8717 111.852 36.3323 111.853 37.2537L111.853 40Z" fill="#72B63B"/>
<path d="M118 37.4619C118.005 38.1253 117.742 38.7638 117.27 39.2386C117.047 39.4816 116.774 39.6752 116.469 39.8065C116.164 39.9378 115.833 40.0036 115.5 39.9997C115.17 40.0048 114.842 39.9426 114.537 39.8171C114.233 39.6916 113.958 39.5055 113.731 39.2706C113.495 39.0425 113.309 38.7702 113.183 38.4699C113.058 38.1695 112.996 37.8475 113 37.523C112.996 36.8659 113.255 36.2335 113.721 35.7612C114.202 35.2538 114.779 35 115.453 35C115.785 34.9981 116.114 35.0616 116.42 35.1869C116.727 35.3121 117.004 35.4966 117.236 35.7292C117.745 36.2177 118 36.7952 118 37.4619ZM113.852 37.5216C113.843 37.9647 114.011 38.3939 114.32 38.7176C114.472 38.8749 114.654 39.0001 114.857 39.0856C115.06 39.171 115.278 39.2149 115.498 39.2145C115.719 39.2141 115.937 39.1694 116.14 39.0833C116.342 38.9971 116.524 38.8712 116.675 38.7134C116.979 38.3837 117.148 37.9551 117.148 37.5105C117.148 37.066 116.979 36.6374 116.675 36.3077C116.524 36.1459 116.339 36.0177 116.133 35.9319C115.927 35.846 115.705 35.8046 115.481 35.8102C115.261 35.8055 115.042 35.8483 114.841 35.9358C114.639 36.0232 114.46 36.1531 114.316 36.3162C114.01 36.6452 113.844 37.0765 113.852 37.5216Z" fill="#72B63B"/>
<path d="M123 36V40.8958H122.219V40.2748C121.841 40.7583 121.4 41 120.898 41C120.265 41 119.784 40.7933 119.456 40.3798C119.152 40.0048 119 39.4831 119 38.8149V36H119.8V38.5673C119.8 39.6544 120.182 40.1982 120.945 40.1987C121.428 40.1987 121.756 40.0334 121.926 39.7027C122.097 39.372 122.182 38.8854 122.182 38.2428V36H123Z" fill="#72B63B"/>
<path d="M127.549 40.0253C126.908 40.0253 126.333 39.7759 125.824 39.2771V42H125V35.1029H125.824V35.7489C126.324 35.2525 126.876 35.0029 127.481 35C128.211 35 128.814 35.2387 129.289 35.7162C129.763 36.1937 130 36.7978 130 37.5286C130 38.2332 129.765 38.8257 129.296 39.3061C129.071 39.5408 128.799 39.7259 128.498 39.8497C128.197 39.9735 127.874 40.0333 127.549 40.0253ZM125.787 37.48C125.782 37.9385 125.957 38.3807 126.274 38.7124C126.42 38.8805 126.602 39.0148 126.806 39.106C127.009 39.1972 127.23 39.2432 127.454 39.2409C127.678 39.2439 127.9 39.2003 128.106 39.113C128.312 39.0256 128.498 38.8964 128.652 38.7334C128.811 38.5759 128.938 38.3878 129.023 38.1804C129.108 37.973 129.151 37.7506 129.148 37.5264C129.152 37.2967 129.111 37.0684 129.027 36.8548C128.942 36.6411 128.816 36.4463 128.656 36.2817C128.502 36.1154 128.314 35.9835 128.105 35.8948C127.896 35.8061 127.671 35.7626 127.444 35.767C127 35.767 126.613 35.9417 126.284 36.2911C126.127 36.447 126.002 36.6322 125.917 36.8362C125.832 37.0402 125.788 37.2589 125.787 37.48Z" fill="#72B63B"/>
<path d="M19.8966 26.4477C19.0787 27.7021 17.8623 28.6482 16.4413 29.1356C15.0202 29.6229 13.4761 29.6235 12.0547 29.1371C10.6333 28.6507 9.41631 27.7054 8.59748 26.4516C7.77864 25.1979 7.40501 23.7077 7.53606 22.2183L5.03555 22C4.85479 24.0444 5.36693 26.0902 6.49041 27.8117C7.6139 29.5331 9.28414 30.8312 11.2352 31.4993C13.1862 32.1673 15.3059 32.1669 17.2567 31.4981C19.2074 30.8293 20.8772 29.5306 22 27.8087L19.8966 26.4477Z" fill="white"/>
<path d="M2.51793 20.9541C2.70214 18.8561 3.45022 16.848 4.68204 15.145C5.91387 13.442 7.58302 12.1082 9.5107 11.2864H9.49579L8.53122 9C3.92975 10.979 0.519458 15.3824 0.0535714 20.7374C-0.617305 28.4755 5.09111 35.3228 12.7838 36L13 33.5208C6.66618 32.9637 1.96408 27.326 2.51793 20.9541Z" fill="white"/>
<path d="M13 21.506C14.4506 21.2693 15.7827 20.5393 16.7844 19.4322C17.786 18.325 18.3997 16.9043 18.5277 15.3962C18.6556 13.888 18.2906 12.3791 17.4906 11.1095C16.6906 9.83994 15.5016 8.88263 14.1129 8.38996L14.9112 6C16.8161 6.67711 18.4467 7.99122 19.5437 9.73338C20.6407 11.4755 21.1412 13.5458 20.9656 15.6148C20.79 17.6839 19.9484 19.6331 18.5746 21.1525C17.2007 22.6718 15.3736 23.6741 13.3836 24L13 21.506Z" fill="white"/>
<path d="M15.5522 3.17589C13.5345 2.47999 11.3663 2.3486 9.27992 2.79581C7.19355 3.24301 5.26759 4.25195 3.70836 5.71456L3.7152 5.70159L2 3.85348C5.73728 0.365585 11.2217 -1.00027 16.3734 0.781447C23.8137 3.3575 27.7827 11.5282 25.2221 19L22.8392 18.1759C24.9471 12.0242 21.6785 5.29488 15.5522 3.17589Z" fill="white"/>
<path d="M38 4V7.09636H35V4H38ZM38 27H35V10.8296H38V27Z" fill="white"/>
<path d="M44.7998 27H42V10.2933H44.6753V12.3773C46.0119 10.7924 47.5915 10 49.4143 10C53.8048 10 56 12.4795 56 17.4385V26.9977H53.2315V18.0901C53.2315 14.5006 51.8633 12.7056 49.1269 12.705C47.4086 12.705 46.2111 13.4232 45.5344 14.8594C45.0467 15.8815 44.8029 17.3939 44.8029 19.3965L44.7998 27Z" fill="white"/>
<path d="M71.0093 21.1874H74C72.6303 25.0625 70.0469 27 66.2497 27C63.8642 27 61.8931 26.1882 60.3364 24.5647C58.7798 22.9412 58.001 20.9249 58 18.5159C58 16.065 58.7938 14.0328 60.3813 12.4194C61.9688 10.806 63.9659 9.9995 66.3723 10C68.2166 10 69.7986 10.4975 71.1185 11.4924C72.4384 12.4873 73.3981 13.8753 73.9978 15.6563H71.0071C70.1149 13.6433 68.4862 12.6368 66.1211 12.6368C64.5854 12.6368 63.3196 13.2181 62.3237 14.3806C61.3279 15.5431 60.8294 16.91 60.8284 18.4811C60.8284 20.0951 61.3269 21.4672 62.3237 22.5975C63.3615 23.7917 64.6687 24.3889 66.2452 24.3889C68.6557 24.3914 70.2437 23.3242 71.0093 21.1874Z" fill="white"/>
<path d="M111.997 26.6501H109.311V24.3429C107.607 26.1148 105.691 27.0005 103.561 27C101.112 27 99.0731 26.1797 97.4441 24.539C95.8152 22.8983 95.0005 20.8495 95 18.3926C95 16.0444 95.8093 14.0382 97.428 12.3739C99.0467 10.7097 101.029 9.87676 103.375 9.87523C105.59 9.87523 107.538 10.7181 109.221 12.4039V2H112L111.997 26.6501ZM97.9092 18.3911C97.9092 20.0348 98.4684 21.4432 99.5867 22.6163C100.705 23.7894 102.084 24.3765 103.723 24.3775C105.214 24.3775 106.518 23.7799 107.637 22.5848C108.755 21.3897 109.314 20.0451 109.313 18.5511C109.313 16.9504 108.765 15.5525 107.668 14.3573C106.571 13.1622 105.235 12.5646 103.659 12.5646C102.063 12.5646 100.705 13.1355 99.5867 14.2774C98.4684 15.4192 97.9092 16.7904 97.9092 18.3911Z" fill="white"/>
<path d="M89.1026 15.1915C89.7349 16.148 90.0516 17.2498 90.0526 18.4968C90.0526 20.0731 89.5084 21.4339 88.42 22.5793C87.3315 23.7246 85.9777 24.297 84.3585 24.2965C83.4772 24.3075 82.6061 24.1136 81.8177 23.7309L80 25.862C81.2906 26.6171 82.7434 26.9965 84.3585 27C86.7531 27 88.7918 26.1303 90.4748 24.3909C92.1577 22.6515 92.9995 20.6186 93 18.2922C93 16.291 92.3246 14.5269 90.9739 13L89.1026 15.1915Z" fill="white"/>
<path d="M79.862 21.7871C79.2666 20.861 78.9689 19.8083 78.9689 18.6291C78.9689 17.033 79.5073 15.6569 80.5843 14.5008C81.6612 13.3447 83.016 12.7659 84.6486 12.7644C85.519 12.7539 86.3805 12.9346 87.1674 13.2928L89 11.1698C87.6586 10.3908 86.1187 9.98595 84.5522 10.0004C82.1997 10.0004 80.1869 10.8699 78.514 12.6088C76.8411 14.3478 76.0031 16.3596 76 18.6442C76 20.6831 76.6535 22.4684 77.9604 24L79.862 21.7871Z" fill="white"/>
<path d="M127.005 21.3112C126.796 21.6955 126.545 22.0557 126.256 22.3852C125.33 23.4436 124.176 24.0514 122.792 24.2084C121.408 24.3654 120.085 24.0783 118.822 23.3471L127.989 12.8499C126.765 11.8164 125.578 11.0796 124.43 10.6395C122.668 9.96165 120.967 9.82267 119.327 10.2226C117.688 10.6225 116.251 11.5298 115.016 12.9444C113.474 14.7097 112.817 16.7613 113.044 19.0993C113.271 21.4372 114.29 23.371 116.102 24.9005C117.915 26.4295 120.017 27.1233 122.409 26.9821C124.801 26.8408 126.769 25.8881 128.313 24.1238C129.096 23.2274 129.656 22.2945 130 21.3143L127.005 21.3112ZM115.809 18.065C115.83 16.8149 116.29 15.6765 117.187 14.6495C118.953 12.6266 121.25 12.2368 124.078 13.4803L116.93 21.6664C116.161 20.5155 115.787 19.315 115.809 18.065Z" fill="white"/>
<rect x="93" y="31" width="38" height="14" fill="#1D283A"/>
<path d="M35.88 43.224H41.8V44.248H35.88V43.224ZM36.008 49H34.824V37.8H42.504V38.824H36.008V49ZM44.709 49V40.6H45.845V49H44.709ZM45.285 38.744C45.0503 38.744 44.853 38.664 44.693 38.504C44.533 38.344 44.453 38.152 44.453 37.928C44.453 37.704 44.533 37.5173 44.693 37.368C44.853 37.208 45.0503 37.128 45.285 37.128C45.5197 37.128 45.717 37.2027 45.877 37.352C46.037 37.5013 46.117 37.688 46.117 37.912C46.117 38.1467 46.037 38.344 45.877 38.504C45.7277 38.664 45.5303 38.744 45.285 38.744ZM53.2939 40.52C53.9765 40.52 54.5739 40.6533 55.0859 40.92C55.6085 41.176 56.0139 41.5707 56.3019 42.104C56.6005 42.6373 56.7499 43.3093 56.7499 44.12V49H55.6139V44.232C55.6139 43.3467 55.3899 42.68 54.9419 42.232C54.5045 41.7733 53.8859 41.544 53.0859 41.544C52.4885 41.544 51.9659 41.6667 51.5179 41.912C51.0805 42.1467 50.7392 42.4933 50.4939 42.952C50.2592 43.4 50.1419 43.944 50.1419 44.584V49H49.0059V40.6H50.0939V42.904L49.9179 42.472C50.1845 41.864 50.6112 41.3893 51.1979 41.048C51.7845 40.696 52.4832 40.52 53.2939 40.52ZM65.0824 49V47.144L65.0344 46.84V43.736C65.0344 43.0213 64.8317 42.472 64.4264 42.088C64.0317 41.704 63.4397 41.512 62.6504 41.512C62.1064 41.512 61.589 41.6027 61.0984 41.784C60.6077 41.9653 60.1917 42.2053 59.8504 42.504L59.3384 41.656C59.765 41.2933 60.277 41.016 60.8744 40.824C61.4717 40.6213 62.101 40.52 62.7624 40.52C63.8504 40.52 64.6877 40.792 65.2744 41.336C65.8717 41.8693 66.1704 42.6853 66.1704 43.784V49H65.0824ZM62.1864 49.08C61.557 49.08 61.0077 48.9787 60.5384 48.776C60.0797 48.5627 59.7277 48.2747 59.4824 47.912C59.237 47.5387 59.1144 47.112 59.1144 46.632C59.1144 46.1947 59.2157 45.8 59.4184 45.448C59.6317 45.0853 59.973 44.7973 60.4424 44.584C60.9224 44.36 61.5624 44.248 62.3624 44.248H65.2584V45.096H62.3944C61.5837 45.096 61.0184 45.24 60.6984 45.528C60.389 45.816 60.2344 46.1733 60.2344 46.6C60.2344 47.08 60.421 47.464 60.7944 47.752C61.1677 48.04 61.6904 48.184 62.3624 48.184C63.0024 48.184 63.5517 48.04 64.0104 47.752C64.4797 47.4533 64.821 47.0267 65.0344 46.472L65.2904 47.256C65.077 47.8107 64.7037 48.2533 64.1704 48.584C63.6477 48.9147 62.9864 49.08 62.1864 49.08ZM73.5439 40.52C74.2265 40.52 74.8239 40.6533 75.3359 40.92C75.8585 41.176 76.2639 41.5707 76.5519 42.104C76.8505 42.6373 76.9999 43.3093 76.9999 44.12V49H75.8639V44.232C75.8639 43.3467 75.6399 42.68 75.1919 42.232C74.7545 41.7733 74.1359 41.544 73.3359 41.544C72.7385 41.544 72.2159 41.6667 71.7679 41.912C71.3305 42.1467 70.9892 42.4933 70.7439 42.952C70.5092 43.4 70.3919 43.944 70.3919 44.584V49H69.2559V40.6H70.3439V42.904L70.1679 42.472C70.4345 41.864 70.8612 41.3893 71.4479 41.048C72.0345 40.696 72.7332 40.52 73.5439 40.52ZM83.5564 49.08C82.7244 49.08 81.9777 48.8987 81.3164 48.536C80.6657 48.1627 80.1537 47.656 79.7804 47.016C79.407 46.3653 79.2204 45.624 79.2204 44.792C79.2204 43.9493 79.407 43.208 79.7804 42.568C80.1537 41.928 80.6657 41.4267 81.3164 41.064C81.9777 40.7013 82.7244 40.52 83.5564 40.52C84.271 40.52 84.9164 40.6587 85.4924 40.936C86.0684 41.2133 86.5217 41.6293 86.8524 42.184L86.0044 42.76C85.7164 42.3333 85.359 42.0187 84.9324 41.816C84.5057 41.6133 84.0417 41.512 83.5404 41.512C82.943 41.512 82.4044 41.6507 81.9244 41.928C81.4444 42.1947 81.0657 42.5733 80.7884 43.064C80.511 43.5547 80.3724 44.1307 80.3724 44.792C80.3724 45.4533 80.511 46.0293 80.7884 46.52C81.0657 47.0107 81.4444 47.3947 81.9244 47.672C82.4044 47.9387 82.943 48.072 83.5404 48.072C84.0417 48.072 84.5057 47.9707 84.9324 47.768C85.359 47.5653 85.7164 47.256 86.0044 46.84L86.8524 47.416C86.5217 47.96 86.0684 48.376 85.4924 48.664C84.9164 48.9413 84.271 49.08 83.5564 49.08ZM92.5114 49.08C91.6367 49.08 90.8687 48.8987 90.2074 48.536C89.546 48.1627 89.0287 47.656 88.6554 47.016C88.282 46.3653 88.0954 45.624 88.0954 44.792C88.0954 43.96 88.2714 43.224 88.6234 42.584C88.986 41.944 89.4767 41.4427 90.0954 41.08C90.7247 40.7067 91.4287 40.52 92.2074 40.52C92.9967 40.52 93.6954 40.7013 94.3034 41.064C94.922 41.416 95.4074 41.9173 95.7594 42.568C96.1114 43.208 96.2874 43.9493 96.2874 44.792C96.2874 44.8453 96.282 44.904 96.2714 44.968C96.2714 45.0213 96.2714 45.08 96.2714 45.144H88.9594V44.296H95.6634L95.2154 44.632C95.2154 44.024 95.082 43.4853 94.8154 43.016C94.5594 42.536 94.2074 42.1627 93.7594 41.896C93.3114 41.6293 92.794 41.496 92.2074 41.496C91.6314 41.496 91.114 41.6293 90.6554 41.896C90.1967 42.1627 89.8394 42.536 89.5834 43.016C89.3274 43.496 89.1994 44.0453 89.1994 44.664V44.84C89.1994 45.48 89.338 46.0453 89.6154 46.536C89.9034 47.016 90.298 47.3947 90.7994 47.672C91.3114 47.9387 91.8927 48.072 92.5434 48.072C93.0554 48.072 93.53 47.9813 93.9674 47.8C94.4154 47.6187 94.7994 47.3413 95.1194 46.968L95.7594 47.704C95.386 48.152 94.9167 48.4933 94.3514 48.728C93.7967 48.9627 93.1834 49.08 92.5114 49.08Z" fill="#539713"/>
</g>
<defs>
<clipPath id="clip0_242_5250">
<rect width="130" height="49" fill="white"/>
</clipPath>
</defs>
</svg>
