<svg width="220" height="200" viewBox="0 0 220 200" fill="none" xmlns="http://www.w3.org/2000/svg">
<g clip-path="url(#clip0_331_5531)">
<path d="M115.683 200C166.493 200 207.683 158.792 207.683 107.96C207.683 57.128 166.493 15.9204 115.683 15.9204C64.8729 15.9204 23.6831 57.128 23.6831 107.96C23.6831 158.792 64.8729 200 115.683 200Z" fill="white"/>
<path d="M138.696 135.435C135.975 139.818 131.446 142.754 126.72 144.457C121.993 146.16 117.475 146.157 112.747 144.457C108.019 142.757 103.494 139.816 100.77 135.435C98.0462 131.054 97.3415 126.605 97.7761 121.4L88.7936 120.398C88.1942 127.543 90.0454 134.432 93.7839 140.448C97.5224 146.463 103.262 150.143 109.753 152.477C116.243 154.81 123.225 154.815 129.714 152.477C136.202 150.138 141.948 146.466 145.683 140.448L138.696 135.435Z" fill="#1D283A"/>
<path d="M80.8217 119.403C81.4347 112.29 83.6921 105.277 87.7939 99.5026C91.8956 93.7285 97.3111 89.3534 103.73 86.5673L100.742 78.6071C85.4087 85.3167 73.4164 100.252 71.8575 118.408C69.6233 144.644 89.0686 167.854 114.687 170.149L115.683 162.189C94.5899 160.3 78.9748 141.007 80.8217 119.403Z" fill="#1D283A"/>
<path d="M115.683 118.408C120.499 117.623 125.307 115.115 128.633 111.443C131.958 107.771 134.185 102.514 134.61 97.5125C135.035 92.511 133.281 87.7925 130.625 83.5822C127.969 79.3718 124.278 76.2609 119.667 74.6269L121.66 66.6667C127.989 68.9079 133.952 72.8278 137.598 78.607C141.245 84.3862 143.163 91.642 142.579 98.5075C141.996 105.373 139.176 112.373 134.61 117.413C130.044 122.453 123.29 125.293 116.679 126.368L115.683 118.408Z" fill="#1D283A"/>
<path d="M124.839 58.5173C118.007 56.1466 110.83 54.9967 103.766 56.52C96.7014 58.0435 90.9832 61.5235 85.7034 66.506L79.6826 60.5145C92.3364 48.6325 110.407 44.4588 127.849 50.5285C153.044 59.3041 165.622 85.9894 156.95 111.443L148.922 108.447C156.064 87.4906 145.579 65.7359 124.839 58.5173Z" fill="#1D283A"/>
<path opacity="0.1" d="M138.533 7.48414C137.592 7.23618 136.522 7.50614 135.45 7.51787C135.182 7.52081 134.691 7.52619 134.423 7.52913C135.75 6.35247 137.565 4.85465 138.487 3.42418C138.751 3.03391 137.725 3.17427 137.46 3.43542C135.865 4.61501 134.844 5.21815 133.384 6.52537C133.365 4.84695 133.357 4.14384 133.338 2.46541C133.33 1.69076 132.302 1.702 132.311 2.47667C132.33 4.1551 132.338 4.8582 132.357 6.53663C131.138 5.38783 127.375 4.57881 126.157 3.55914C125.617 3.17767 124.601 4.20391 125.141 4.58538C126.091 5.60798 130.257 6.54171 131.34 7.56287C130.001 7.57753 125.487 7.49781 124.148 7.64158C123.612 7.64745 123.624 8.66244 124.159 8.65658C125.769 8.76809 129.878 8.59398 131.352 8.57785C130.158 9.62393 126.28 10.5166 125.221 11.6903C124.691 12.2126 125.728 13.0873 126.26 12.694C127.454 11.648 131.33 10.6262 132.391 9.58159C132.407 11.0018 132.152 12.2243 132.436 13.6416C132.439 13.8998 133.333 13.89 133.464 13.6303C133.717 12.3363 133.434 10.9905 133.418 9.57035C133.823 9.82417 134.052 10.3203 134.457 10.5741C135.268 11.2108 135.725 12.0739 136.535 12.5816C136.806 12.8369 137.822 11.8106 137.551 11.5553C136.872 10.7881 136.152 10.3152 135.473 9.54786C135.065 9.03582 134.841 8.92705 134.434 8.54411C135.104 8.53678 134.792 8.5402 135.462 8.53287C136.534 8.52114 137.475 8.76909 138.544 8.49913C138.677 8.36855 138.936 7.60885 138.533 7.48414Z" fill="#030229"/>
<path opacity="0.1" d="M11.6303 69.2184C10.9292 68.9679 9.54139 69.2413 8.74343 69.2501C8.54395 69.2521 8.94292 69.2479 8.74343 69.2501C9.72783 68.0771 10.9024 66.5863 11.5847 65.1584C11.7798 64.769 10.819 64.9086 10.6224 65.169C9.33731 66.216 7.8902 66.9529 6.80751 68.2561C6.78866 66.5776 6.78077 65.8745 6.76193 64.1961C6.75323 63.4215 5.79097 63.4319 5.79966 64.2067C5.81851 65.8851 5.8264 66.5882 5.84524 68.2666C4.9345 67.1144 3.83355 66.2763 2.92426 65.2532C2.52093 64.8702 1.57006 65.8958 1.97339 66.2788C2.68319 67.304 4.08482 68.268 4.89437 69.2921C3.89693 69.3031 2.04129 69.1942 1.0453 69.3342C0.646329 69.3386 0.657724 70.3536 1.0567 70.3493C2.25508 70.4653 3.80858 70.3191 4.90576 70.3072C4.01966 71.3499 2.83805 72.2129 2.05315 73.3837C1.65997 73.9045 2.63218 74.7798 3.02681 74.3882C3.91291 73.3455 5.09307 72.3532 5.87942 71.3115C5.89537 72.7317 5.70957 73.9535 5.925 75.3715C5.9279 75.6298 6.79042 75.6203 6.88727 75.361C7.07226 74.0678 6.85763 72.7213 6.84169 71.3011C7.14382 71.556 7.51322 72.0506 7.81535 72.3055C8.42106 72.9445 9.15841 73.8046 9.76267 74.3144C9.96506 74.5704 10.916 73.545 10.7136 73.2889C10.2062 72.5197 9.27364 72.0492 8.76622 71.28C8.46119 70.7669 8.09614 70.6596 7.79256 70.2755C8.29128 70.2701 8.25611 70.2705 8.75483 70.265C9.55278 70.2562 10.8466 70.5004 11.6417 70.2334C11.74 70.1032 11.8312 69.3454 11.6303 69.2184Z" fill="#030229"/>
<path d="M31.675 28.6888C30.4262 28.0065 28.6303 27.9198 27.7148 26.7701C26.6851 25.5056 26.3844 23.3875 25.6906 21.8873C25.6906 21.8873 25.8034 21.8861 25.6906 21.8873C25.6906 21.8873 25.8021 21.7701 25.6906 21.8873C25.6906 21.8873 25.6893 21.7714 25.6906 21.8873C25.3873 25.022 23.09 27.7921 20.8559 29.7882C20.7444 29.9053 20.7528 30.6543 20.8669 30.769C23.3618 31.9015 25.0484 35.0386 25.8668 37.5812C25.9822 37.812 26.7411 37.8036 26.8513 37.5705C27.2857 36.0579 27.9913 34.0448 28.7654 32.6445C29.5395 31.2443 30.4542 30.495 31.686 29.6696C31.7975 29.5524 31.7878 28.6875 31.675 28.6888Z" fill="#605BFF"/>
<path d="M219.708 65.5043C218.434 64.8223 216.556 64.7366 215.737 63.5858C214.686 62.3215 214.415 60.203 213.707 58.703C213.707 58.703 213.822 58.7018 213.707 58.703C213.707 58.703 213.821 58.5858 213.707 58.703C213.707 58.703 213.705 58.5871 213.707 58.703C213.396 61.8378 211.138 64.6074 208.858 66.604C208.744 66.7213 208.752 67.4701 208.869 67.5849C211.415 68.7168 213.048 71.8545 213.883 74.3969C214.001 74.6276 214.758 74.6193 214.87 74.3862C215.314 72.8735 216 70.8606 216.79 69.4602C217.581 68.0598 218.462 67.3107 219.719 66.4852C219.719 66.4852 219.825 65.619 219.708 65.5043Z" fill="#605BFF"/>
<path d="M129.652 35.6844C128.74 35.2443 127.384 34.5465 126.694 33.7664C126.004 32.8739 126.262 31.8584 125.683 30.852C125.683 30.852 125.796 30.8507 125.683 30.852L124.704 30.8626C124.704 30.8626 124.703 30.7501 124.704 30.8626C124.501 33.0028 123.407 35.3778 121.834 36.7452C121.722 36.859 121.72 36.7465 121.834 36.7452C123.658 37.5129 125.217 39.8964 125.803 41.5778C125.806 41.8028 125.806 41.8028 125.803 41.5778C126.019 40.5627 127.171 39.5374 127.728 38.6311C128.285 37.7248 128.751 36.257 129.652 35.6844C129.766 35.6832 129.766 35.6832 129.652 35.6844Z" fill="#605BFF"/>
<path d="M98.7125 57.4636C97.0368 56.6848 94.8403 55.9358 93.7535 54.5811C92.426 53.0013 91.5858 50.5533 90.7319 48.7405C90.7319 48.7405 90.851 48.7392 90.7319 48.7405C90.7319 48.7405 90.7306 48.6267 90.7319 48.7405C90.2966 52.3894 87.7623 56.2849 84.9305 58.5934C84.8128 58.7086 84.6924 58.5961 84.9305 58.5934C88.1604 59.9246 90.9389 64.2634 91.9259 67.3273C92.0488 67.6676 92.7959 67.6593 92.9111 67.3165C93.3682 65.6033 93.8811 63.0265 94.8156 61.422C95.7502 59.8175 97.0559 58.3928 98.7125 57.4636C98.4744 57.4662 98.9519 57.5749 98.7125 57.4636Z" fill="#605BFF"/>
<path d="M68.6647 26.49C67.0778 24.3225 64.7425 22.4851 62.7141 20.7594C61.5883 19.8978 60.9737 18.536 59.7388 17.8941C59.0655 17.5737 57.4584 17.2808 56.7852 16.9605C56.4491 16.8549 56.1307 16.2201 55.7934 16.0054C55.4574 15.8998 55.146 15.9032 54.8125 16.0161C54.5893 16.0185 54.6984 15.7988 54.8125 16.0161C54.9302 16.561 55.365 17.6142 55.8151 17.937C56.378 18.3678 57.2249 18.4505 57.7878 18.8814C58.9124 19.6338 60.7298 20.8731 61.744 21.736C63.6608 23.4629 65.2505 26.3837 66.7246 28.4432C67.4052 29.4189 69.3466 27.575 68.6647 26.49Z" fill="#FF8F6B"/>
<path d="M68.6895 73.1437C67.6544 70.9299 65.0264 70.2043 62.6169 69.2938C60.2075 68.3832 58.083 67.0339 55.5617 67.4128C53.1653 67.6733 50.4372 69.2773 49.5771 71.3948C48.9629 72.9239 48.1037 75.1352 49.632 76.2896C50.3975 76.9839 51.9076 77.9465 52.6573 77.2356C53.9081 76.1679 52.6279 74.1394 51.6086 73.3307C47.4025 69.8633 41.1756 70.4749 36.5262 72.5167C33.6353 73.7195 31.0438 75.7577 29.5588 78.4675C28.3199 80.5891 26.9866 85.0824 28.653 87.2893C28.9095 87.6379 29.4092 87.6324 29.6578 87.2784C31.0269 85.5066 30.6013 82.2881 31.5903 80.4035C32.5781 78.4017 34.6771 76.5282 36.5592 75.4536C40.447 73.0688 46.5455 71.7887 50.6148 74.3207C51.1238 74.6664 52.3912 75.5568 51.6415 76.2676C51.0168 76.8601 50.0161 76.7539 49.632 76.2896C48.088 73.73 51.308 70.0031 53.5741 69.3928C55.8403 68.7824 58.4628 69.4986 60.6184 70.2948C63.0253 70.9711 66.2858 72.2754 67.6957 74.1337C68.3296 74.361 68.9485 73.7264 68.6895 73.1437Z" fill="#EF37FF"/>
<path d="M175.776 55.8428C175.898 55.8414 175.897 55.7189 175.775 55.7203C175.652 55.7216 175.653 55.8441 175.776 55.8428Z" fill="#3F3937"/>
<path d="M174.362 52.2983C176.391 48.4927 180.611 44.4267 185.379 45.7932C187.09 46.2475 189.301 47.7603 189.081 49.8909C188.975 51.3108 187.259 50.3837 186.643 49.7993C185.163 48.2785 185.864 45.5515 186.331 43.7729C187.036 41.4006 188.595 39.1371 190.65 37.6958C192.342 36.3768 194.65 35.7604 196.719 35.5013C199.032 35.2395 201.111 35.9261 203.31 36.3749C204.164 36.4839 204.763 35.5315 204.147 34.9471C202.544 33.3094 199.739 33.1036 197.548 33.364C195.236 33.6258 192.805 34.2436 190.87 35.5653C186.999 38.0906 184.134 43.4423 184.55 47.9305C184.816 49.9375 187.539 53.6911 189.831 51.5378C190.917 50.5801 190.531 48.8109 190.031 47.634C189.158 45.8702 187.195 44.7094 185.362 44.2564C179.862 42.8979 175.648 47.4368 173.627 51.9517C173.509 52.3077 174.122 52.6556 174.362 52.2983Z" fill="#EF37FF"/>
<path d="M68.9424 47.4353C67.2099 45.0896 64.9966 43.3404 62.4244 42.1862C61.0773 41.6098 59.7316 41.1516 58.3886 40.9298C57.1674 40.7067 55.3382 40.6085 54.2482 41.2116C54.0058 41.3325 54.0098 41.6871 54.2561 41.9209C55.2376 42.5013 56.7012 42.6035 57.8005 42.8279C59.1449 43.1679 60.2456 43.5106 61.4708 44.0883C63.798 45.1269 66.0086 46.6398 67.614 48.5139C68.2312 49.2165 69.561 48.2561 68.9424 47.4353Z" fill="#FF8F6B"/>
<path d="M41.1262 55.661C42.2203 55.4125 43.4375 55.281 44.5342 55.2689C45.1435 55.2623 45.7527 55.2556 46.362 55.2489C46.7276 55.2449 47.0931 55.241 47.3355 55.1201C47.5779 54.9992 47.8216 54.9965 48.064 54.8756C48.3064 54.7547 48.3024 54.4001 48.0574 54.2845C47.8123 54.169 47.5673 54.0534 47.4441 53.9366C47.1991 53.8211 46.7116 53.8263 46.4666 53.7108C45.8573 53.7175 45.2481 53.7241 44.5183 53.8503C43.301 53.9819 42.0851 54.2317 40.8706 54.5997C40.1408 54.7259 40.3964 55.7871 41.1262 55.661Z" fill="#FF8F6B"/>
<path d="M170.938 83.7851C174.327 81.7381 177.964 80.043 181.852 78.9364C183.674 78.4435 185.618 77.9493 187.565 77.6915C188.661 77.5613 189.634 77.4324 190.73 77.3022C191.583 77.2929 192.436 77.2835 193.163 76.9208C193.405 76.7999 193.401 76.4453 193.156 76.3298C192.299 75.9844 191.448 76.112 190.473 76.1227C189.376 76.1347 188.403 76.2636 187.306 76.2756C185.236 76.4165 183.168 76.7938 181.102 77.2893C176.969 78.2804 173.334 80.0937 169.951 82.7318C169.469 83.21 170.211 84.1477 170.938 83.7851Z" fill="#FF8F6B"/>
<path d="M164.172 78.3021C167.063 75.3147 170.818 73.2637 174.451 71.2139C176.268 70.2483 178.206 69.163 180.147 68.3141C181.238 67.8293 182.207 67.3457 183.177 66.8622C184.147 66.3786 185.241 66.1301 186.209 65.5285C186.451 65.4076 186.447 65.0529 186.08 64.9387C185.103 64.7129 184.01 65.0796 183.037 65.2085C181.819 65.34 180.727 65.7067 179.635 66.1915C177.452 67.1613 175.271 68.2492 173.213 69.454C169.215 71.626 165.707 73.9107 162.944 77.488C162.463 78.0844 163.568 78.7817 164.172 78.3021Z" fill="#FF8F6B"/>
<path d="M144.167 22.3615C144.041 22.0081 144.037 21.6535 143.91 21.182C143.907 20.9455 143.784 20.8286 143.783 20.7104C143.781 20.5922 143.78 20.474 143.657 20.3571C143.656 20.2389 143.534 20.2402 143.532 20.122C143.409 20.0052 143.286 19.8882 143.164 19.8895C143.042 19.8909 142.922 20.0104 142.801 20.13C142.803 20.2482 142.681 20.2495 142.682 20.3677C142.683 20.486 142.685 20.6042 142.686 20.7224C142.689 20.9589 142.691 21.1953 142.816 21.4303C142.82 21.7851 142.946 22.1384 143.072 22.4916L143.07 22.3734L143.072 22.4916C143.073 22.6098 143.197 22.845 143.321 22.9619C143.444 23.0787 143.689 23.1943 143.809 23.0747C143.931 23.0734 144.174 22.9525 144.172 22.8343C144.172 22.8343 144.17 22.5979 144.167 22.3615Z" fill="#030229"/>
<path d="M149.234 39.3312C149.321 36.2563 150.265 33.5267 151.33 30.6774C151.923 29.2521 152.518 27.9452 153.235 26.6367C153.951 25.3283 154.67 24.2564 155.02 22.8338C155.017 22.5974 154.77 22.2454 154.529 22.4845C153.925 22.9641 153.563 23.3227 153.082 23.9191C152.723 24.5142 152.366 25.2275 152.007 25.8226C151.292 27.2491 150.576 28.6758 149.984 30.2193C148.919 33.0684 148.346 36.267 148.259 39.342C148.387 39.9316 149.24 39.9224 149.234 39.3312Z" fill="#FF8F6B"/>
<path d="M159.489 19.3566C159.608 19.1188 159.729 18.9993 159.848 18.7615C159.848 18.7615 159.849 18.8797 159.728 18.8811C159.728 18.8811 159.726 18.7628 159.848 18.7615L159.969 18.642C160.089 18.5224 160.089 18.5224 160.21 18.4029C160.449 18.0456 160.812 17.8051 161.052 17.4478C161.292 17.0905 161.655 16.8501 161.894 16.4928C162.014 16.2549 162.256 16.134 162.375 15.8963C162.374 15.7781 162.496 15.7767 162.494 15.6585C162.615 15.539 162.614 15.4208 162.612 15.3025C162.732 15.0648 162.484 14.7129 162.118 14.7168C161.996 14.7181 161.875 14.7195 161.631 14.7221C161.509 14.7235 161.51 14.8417 161.388 14.843C161.388 14.843 161.388 14.843 161.267 14.8444C161.388 14.843 161.388 14.843 161.267 14.8444C161.023 14.847 160.782 15.0861 160.539 15.207C160.055 15.4488 159.693 15.8074 159.332 16.1661C158.97 16.5247 158.608 16.8834 158.37 17.3589C158.13 17.7162 157.77 18.193 157.652 18.5491C157.412 18.9064 157.541 19.4961 158.031 19.7273C158.763 19.8374 159.249 19.7139 159.489 19.3566Z" fill="#FF8F6B"/>
<path d="M155.472 41.5094C155.827 40.5596 156.305 39.7268 156.66 38.7771C157.015 37.8273 157.372 36.9958 157.848 36.0447C158.326 35.2119 158.681 34.2621 159.16 33.4293C159.638 32.5965 160.36 31.7609 160.471 30.8139C160.467 30.4592 160.1 30.345 159.856 30.3477C158.884 30.5948 158.408 31.664 157.807 32.38C157.085 33.2156 156.609 34.1666 156.132 35.1177C155.655 36.0687 155.3 37.0184 154.946 38.0864C154.83 38.5606 154.591 39.0362 154.598 39.6272C154.482 40.1014 154.488 40.6926 154.493 41.1654C154.378 41.7579 155.234 41.9849 155.472 41.5094Z" fill="#FF8F6B"/>
<path d="M162.152 28.549C162.389 27.9553 162.749 27.4785 163.11 27.0015C163.589 26.2869 163.823 25.4568 164.304 24.8603C164.785 24.2639 165.392 24.0208 165.996 23.5412C166.6 23.0617 167.204 22.5822 167.806 21.9844C170.098 19.8312 172.757 17.9104 175.542 16.3429C176.27 15.9802 176.997 15.6176 177.724 15.255C178.209 15.0132 178.935 14.5323 178.562 13.9452C177.94 12.7697 175.52 14.3332 174.793 14.6959C172.007 16.2633 169.717 18.5348 167.181 20.5725C166.455 21.0534 165.852 21.6511 165.25 22.2489C164.647 22.8466 164.169 23.6795 163.566 24.2773C162.964 24.875 162.237 25.2377 161.634 25.8354C161.152 26.3136 160.794 27.0269 160.559 27.7389C160.082 28.6899 161.555 29.6196 162.152 28.549Z" fill="#FF8F6B"/>
<path opacity="0.5" d="M104.464 35.4468C104.941 34.4957 105.049 33.3122 104.915 32.2496C104.902 31.0674 104.767 29.8866 104.511 28.8253C104.509 28.5889 104.021 28.5942 104.024 28.8307C103.914 29.896 103.926 30.9598 103.939 32.142C103.95 33.0878 103.962 34.1517 103.606 34.9832C103.368 35.577 104.227 36.0405 104.464 35.4468Z" fill="#EF37FF"/>
<g opacity="0.5">
<path d="M104.533 20.0762C104.521 19.0123 104.631 17.947 104.499 17.0026C104.365 15.94 103.989 14.9983 103.369 14.0592C103.245 13.8241 102.758 13.9476 102.884 14.301C103.393 16.1871 103.415 18.1968 103.438 20.2064C103.323 20.7989 104.541 20.7856 104.533 20.0762Z" fill="#EF37FF"/>
</g>
<path opacity="0.5" d="M99.0591 9.9678C98.8048 9.02471 98.4286 8.08298 97.9319 7.26079C97.6842 6.90881 97.557 6.43728 97.3093 6.0853C97.0617 5.73332 96.81 5.02668 96.3226 5.03201C96.0788 5.03468 95.8351 5.03735 95.7159 5.27512C95.4775 5.75065 95.8484 6.21951 96.0974 6.68971C96.3451 7.04169 96.5941 7.51189 96.72 7.86522C97.2167 8.6874 97.5915 9.51091 97.8445 10.3358C98.0962 11.0424 99.3108 10.6744 99.0591 9.9678Z" fill="#EF37FF"/>
<path opacity="0.5" d="M104.646 8.25166C104.879 7.30326 104.989 6.23798 105.099 5.1727C105.094 4.69983 105.087 4.10875 105.082 3.63588C105.076 3.16301 105.07 2.57193 104.821 2.10173C104.695 1.74842 104.207 1.75375 104.09 2.10973C103.851 2.58526 103.858 3.17635 103.863 3.64921C103.868 4.12208 103.874 4.59494 103.879 5.06781C103.89 6.01355 103.778 6.96062 103.667 7.90768C103.67 8.14411 103.796 8.49743 104.039 8.49477C104.286 8.72853 104.65 8.60631 104.646 8.25166Z" fill="#EF37FF"/>
<path opacity="0.5" d="M109.313 11.6293C109.544 10.4444 110.019 9.37516 110.618 8.42276C111.217 7.47035 112.06 6.63351 112.781 5.67976C112.9 5.442 112.774 5.08868 112.532 5.20957C111.195 5.57889 110.233 6.65351 109.635 7.72413C108.916 8.79608 108.565 10.1004 108.335 11.2853C108.099 11.9973 109.2 12.3399 109.313 11.6293Z" fill="#EF37FF"/>
<path d="M189.902 58.0395C190.023 57.9199 190.022 57.8017 190.142 57.6822C190.261 57.4444 190.381 57.2066 190.378 56.9702C190.375 56.7338 190.374 56.6156 190.493 56.3777L190.492 56.2595C190.49 56.1413 190.489 56.0231 190.488 55.9049C190.485 55.6685 190.483 55.4321 190.358 55.1969C190.355 54.9605 190.232 54.8436 190.109 54.7268C189.86 54.2565 189.369 53.9073 188.758 53.7957C189.003 53.9113 189.248 54.0268 189.494 54.2605C189.248 54.0268 189.003 53.9113 188.759 53.914C188.514 53.7983 188.271 53.801 188.15 53.9206C187.906 53.9232 187.786 54.0428 187.543 54.1637C187.301 54.2846 187.06 54.5237 186.941 54.7614C187.304 54.521 187.545 54.2819 187.908 54.0414C187.786 54.0428 187.665 54.1623 187.543 54.1637C187.301 54.2846 187.059 54.4054 186.938 54.525C186.818 54.6445 186.697 54.7641 186.577 54.8836C186.578 55.0019 186.456 55.0032 186.457 55.1214C186.459 55.2396 186.338 55.3592 186.339 55.4774C186.46 55.3578 186.457 55.1214 186.578 55.0019C186.579 55.1201 186.457 55.1214 186.459 55.2396C186.46 55.3578 186.338 55.3592 186.339 55.4774C186.219 55.5969 186.222 55.8334 186.101 55.953C185.982 56.1907 185.863 56.4285 185.867 56.7831C185.747 57.0209 185.873 57.3742 185.876 57.6107C186 57.8457 186.125 58.0808 186.249 58.3159C186.374 58.5511 186.62 58.7848 186.865 58.9003C186.989 59.0172 187.232 59.0146 187.355 59.1315C187.722 59.2457 188.21 59.2403 188.574 59.1181C188.695 58.9985 188.938 58.9959 189.059 58.8763C189.544 58.6346 189.783 58.2772 189.902 58.0395Z" fill="#FF8F6B"/>
<path d="M185.056 17.0666C185.055 16.9484 184.933 16.9497 184.932 16.8314C184.808 16.7145 184.685 16.5977 184.684 16.4795C184.684 16.4795 184.561 16.3626 184.439 16.3639C184.194 16.2484 184.192 16.1302 183.826 16.0159C183.704 16.0173 183.459 15.9017 183.337 15.9031C183.215 15.9044 182.971 15.9071 182.971 15.9071L182.607 16.0293C182.365 16.1502 182.244 16.2698 182.125 16.5075C182.004 16.6271 182.004 16.6271 182.006 16.7453C182.007 16.8635 181.885 16.8648 181.887 16.983C181.767 17.2208 181.649 17.5768 181.653 17.9314C181.657 18.2861 181.782 18.5212 181.908 18.8745C182.28 19.4616 182.893 19.8096 183.502 19.8029C184.112 19.7962 184.839 19.4335 185.076 18.8398C185.195 18.602 185.313 18.2461 185.309 17.8914C185.306 17.6549 185.182 17.4199 185.056 17.0666Z" fill="#FF8F6B"/>
<path d="M95.4106 32.2356C94.3999 29.0544 94.8488 25.6207 95.4223 22.4222C95.4196 22.1858 95.1746 22.0703 95.0554 22.308C93.8727 25.5132 93.5483 29.1819 94.5603 32.4813C94.5669 33.0724 95.5391 32.8253 95.4106 32.2356Z" fill="#030229"/>
</g>
<defs>
<clipPath id="clip0_331_5531">
<rect width="220" height="200" fill="white"/>
</clipPath>
</defs>
</svg>
