<svg width="32" height="32" viewBox="0 0 32 32" fill="none" xmlns="http://www.w3.org/2000/svg">
<path fill-rule="evenodd" clip-rule="evenodd" d="M23.8416 1.22979L23.8433 2.42919C28.7405 2.77461 31.9754 5.77791 31.9807 10.3836L32 23.8649C32.007 28.8863 28.5018 31.976 22.8832 31.984L9.1589 32C3.57545 32.0064 0.0263406 28.8432 0.0193196 23.8073L1.18218e-05 10.4844C-0.00700918 5.84827 3.11382 2.85297 8.01097 2.44838L8.00922 1.24898C8.00746 0.545331 8.58669 0.0159956 9.359 0.0159956C10.1313 0.0143964 10.7105 0.542132 10.7123 1.24578L10.7141 2.36522L21.1402 2.35243L21.1385 1.23299C21.1367 0.529338 21.716 0.00160282 22.4883 3.62478e-06C23.243 -0.00159557 23.8398 0.52614 23.8416 1.22979ZM3.20249 11.1999L30.4007 11.1667V10.5855C30.3234 7.01518 28.3617 5.14201 24.8407 4.86303L24.8425 6.1417C24.8425 6.85576 24.2335 7.42203 23.461 7.42203C22.6706 7.42369 22.076 6.85909 22.076 6.14502L22.0742 4.79993L11.4033 4.81321L11.4051 6.15665C11.4051 6.87237 10.814 7.43698 10.0236 7.43698C9.23316 7.43864 8.63854 6.87569 8.63854 6.15997L8.63674 4.8813C5.13367 5.2018 3.19531 7.08161 3.20069 10.6835L3.20249 11.1999ZM22.3999 19.2289V19.2502C22.4193 20.1422 23.1562 20.819 24.0501 20.7996C24.9227 20.7782 25.6189 20.0394 25.5995 19.1474C25.5588 18.2942 24.8588 17.598 23.9881 17.6C23.0961 17.6194 22.398 18.3369 22.3999 19.2289ZM23.9849 25.5999C23.1088 25.5811 22.4022 24.8681 22.4003 24.0027C22.3812 23.1374 23.084 22.4206 23.9601 22.3999H23.9791C24.8743 22.3999 25.5999 23.1129 25.5999 23.9971C25.6018 24.8813 24.8781 25.598 23.9849 25.5999ZM16.0015 19.2589C16.0402 20.1453 16.7788 20.837 17.6705 20.7984C18.5428 20.758 19.2387 20.0258 19.1999 19.1395C19.1786 18.2724 18.4614 17.5981 17.5891 17.6C16.6974 17.6385 15.9995 18.3726 16.0015 19.2589ZM17.6704 25.5984C16.7788 25.6369 16.0422 24.9452 16.0015 24.0589C16.0015 23.1725 16.6973 22.4404 17.589 22.3999C18.4613 22.398 19.1804 23.0724 19.1998 23.9375C19.2405 24.8257 18.5427 25.5579 17.6704 25.5984ZM8.00147 19.2589C8.04026 20.1451 8.77922 20.8388 9.67141 20.7983C10.5442 20.7598 11.2405 20.0257 11.1998 19.1394C11.1804 18.2724 10.4627 17.5981 9.58801 17.6C8.69582 17.6385 7.99953 18.3726 8.00147 19.2589ZM9.66893 25.5983C8.77729 25.6388 8.04071 24.9452 8 24.0589C7.99807 23.1726 8.69588 22.4386 9.58752 22.4C10.4598 22.3981 11.1789 23.0724 11.1983 23.9395C11.239 24.8257 10.5431 25.5598 9.66893 25.5983Z" fill="white"/>
</svg>
