<svg width="32" height="32" viewBox="0 0 32 32" fill="none" xmlns="http://www.w3.org/2000/svg">
<path fill-rule="evenodd" clip-rule="evenodd" d="M28.1107 9.26427C27.6213 8.47227 26.7733 8.00027 25.8427 8.00027H8.776L7.95334 4.98294C7.79467 4.40294 7.26801 4.00027 6.66667 4.00027H4.00001C3.26267 4.00027 2.66667 4.59761 2.66667 5.33361C2.66667 6.06961 3.26267 6.66694 4.00001 6.66694H5.64801L9.38 20.3509C9.53867 20.9309 10.0653 21.3336 10.6667 21.3336H22.6667C23.172 21.3336 23.6333 21.0483 23.86 20.5963L28.228 11.8589C28.644 11.0256 28.6 10.0563 28.1107 9.26427ZM10 24C8.896 24 8 24.8947 8 26C8 27.1053 8.896 28 10 28C11.104 28 12 27.1053 12 26C12 24.8947 11.104 24 10 24ZM21.3333 26C21.3333 24.8947 22.2293 24 23.3333 24C24.4373 24 25.3333 24.8947 25.3333 26C25.3333 27.1053 24.4373 28 23.3333 28C22.2293 28 21.3333 27.1053 21.3333 26Z" fill="#F08E5B"/>
</svg>
