<svg width="32" height="32" viewBox="0 0 32 32" fill="none" xmlns="http://www.w3.org/2000/svg">
<path fill-rule="evenodd" clip-rule="evenodd" d="M13.3333 7.33333C13.3333 6.96533 13.632 6.66667 14 6.66667H18C18.368 6.66667 18.6667 6.96533 18.6667 7.33333V9.33333H13.3333V7.33333ZM9.33333 28H22.6667V9.33333H21.3333V7.33333C21.3333 5.496 19.8373 4 18 4H14C12.1627 4 10.6667 5.496 10.6667 7.33333V9.33333H9.33333V28ZM25.3333 9.33333V28C27.5387 28 29.3333 26.2053 29.3333 24V13.3333C29.3333 11.128 27.5387 9.33333 25.3333 9.33333ZM2.66667 13.3333C2.66667 11.128 4.46133 9.33333 6.66667 9.33333V28C4.46133 28 2.66667 26.2053 2.66667 24V13.3333Z" fill="#539713"/>
</svg>
