<svg width="24" height="24" viewBox="0 0 24 24" fill="none" xmlns="http://www.w3.org/2000/svg">
<path fill-rule="evenodd" clip-rule="evenodd" d="M7.33 2H16.669C20.07 2 21.99 3.929 22 7.33V16.67C22 20.07 20.07 22 16.669 22H7.33C3.929 22 2 20.07 2 16.67V7.33C2 3.929 3.929 2 7.33 2ZM12.0484 17.8599C12.4794 17.8599 12.8384 17.5399 12.8784 17.1099V6.91994C12.9184 6.60994 12.7694 6.29894 12.4994 6.12994C12.2184 5.95994 11.8784 5.95994 11.6094 6.12994C11.3384 6.29894 11.1894 6.60994 11.2184 6.91994V17.1099C11.2694 17.5399 11.6284 17.8599 12.0484 17.8599ZM16.6509 17.86C17.0709 17.86 17.4299 17.54 17.4809 17.11V13.83C17.5099 13.509 17.3609 13.21 17.0899 13.04C16.8209 12.87 16.4809 12.87 16.2009 13.04C15.9299 13.21 15.7809 13.509 15.8209 13.83V17.11C15.8609 17.54 16.2199 17.86 16.6509 17.86ZM8.21945 17.11C8.17945 17.54 7.82045 17.86 7.38945 17.86C6.95945 17.86 6.59945 17.54 6.56045 17.11V10.2C6.53045 9.88897 6.67945 9.57997 6.95045 9.40997C7.21945 9.23997 7.56045 9.23997 7.83045 9.40997C8.09945 9.57997 8.25045 9.88897 8.21945 10.2V17.11Z" fill="currentColor"/>
</svg>
