<svg width="24" height="24" viewBox="0 0 24 24" fill="none" xmlns="http://www.w3.org/2000/svg">
<path fill-rule="evenodd" clip-rule="evenodd" d="M4.5399 2H7.9199C9.3299 2 10.4599 3.15 10.4599 4.561V7.97C10.4599 9.39 9.3299 10.53 7.9199 10.53H4.5399C3.1399 10.53 1.9999 9.39 1.9999 7.97V4.561C1.9999 3.15 3.1399 2 4.5399 2ZM4.5399 13.4697H7.9199C9.3299 13.4697 10.4599 14.6107 10.4599 16.0307V19.4397C10.4599 20.8497 9.3299 21.9997 7.9199 21.9997H4.5399C3.1399 21.9997 1.9999 20.8497 1.9999 19.4397V16.0307C1.9999 14.6107 3.1399 13.4697 4.5399 13.4697ZM19.4609 2H16.0809C14.6709 2 13.5409 3.15 13.5409 4.561V7.97C13.5409 9.39 14.6709 10.53 16.0809 10.53H19.4609C20.8609 10.53 22.0009 9.39 22.0009 7.97V4.561C22.0009 3.15 20.8609 2 19.4609 2ZM16.0809 13.4697H19.4609C20.8609 13.4697 22.0009 14.6107 22.0009 16.0307V19.4397C22.0009 20.8497 20.8609 21.9997 19.4609 21.9997H16.0809C14.6709 21.9997 13.5409 20.8497 13.5409 19.4397V16.0307C13.5409 14.6107 14.6709 13.4697 16.0809 13.4697Z" fill="#1D283A"/>
</svg>
