<svg width="24" height="24" viewBox="0 0 24 24" fill="none" xmlns="http://www.w3.org/2000/svg">
<path fill-rule="evenodd" clip-rule="evenodd" d="M7.81 2H16.191C19.28 2 21 3.78 21 6.83V17.16C21 20.26 19.28 22 16.191 22H7.81C4.77 22 3 20.26 3 17.16V6.83C3 3.78 4.77 2 7.81 2ZM8.08094 6.66002V6.65002H11.0699C11.5009 6.65002 11.8509 7.00002 11.8509 7.42902C11.8509 7.87002 11.5009 8.22002 11.0699 8.22002H8.08094C7.64994 8.22002 7.30094 7.87002 7.30094 7.44002C7.30094 7.01002 7.64994 6.66002 8.08094 6.66002ZM8.08094 12.74H15.9209C16.3509 12.74 16.7009 12.39 16.7009 11.96C16.7009 11.53 16.3509 11.179 15.9209 11.179H8.08094C7.64994 11.179 7.30094 11.53 7.30094 11.96C7.30094 12.39 7.64994 12.74 8.08094 12.74ZM8.08094 17.31H15.9209C16.3199 17.27 16.6209 16.929 16.6209 16.53C16.6209 16.12 16.3199 15.78 15.9209 15.74H8.08094C7.78094 15.71 7.49094 15.85 7.33094 16.11C7.17094 16.36 7.17094 16.69 7.33094 16.95C7.49094 17.2 7.78094 17.35 8.08094 17.31Z" fill="currentColor"/>
</svg>
