<svg width="24" height="24" viewBox="0 0 24 24" fill="none" xmlns="http://www.w3.org/2000/svg">
<path fill-rule="evenodd" clip-rule="evenodd" d="M9.11868 11.076C8.61339 11.076 8.21386 11.484 8.21386 12C8.21386 12.504 8.61339 12.924 9.11868 12.924H16.1692V18.66C16.1692 21.6 13.8308 24 10.9401 24H5.21739C2.33842 24 0 21.612 0 18.672V5.34C0 2.388 2.35018 0 5.22914 0H10.9636C13.8308 0 16.1692 2.388 16.1692 5.328V11.076H9.11868ZM20.3619 7.84825L23.7343 11.3402C23.9076 11.5202 24 11.7482 24 12.0002C24 12.2402 23.9076 12.4802 23.7343 12.6482L20.3619 16.1402C20.1886 16.3202 19.9576 16.4162 19.7382 16.4162C19.5072 16.4162 19.2762 16.3202 19.103 16.1402C18.7565 15.7802 18.7565 15.1922 19.103 14.8322L20.9509 12.9242H16.1694V11.0762H20.9509L19.103 9.16825C18.7565 8.80825 18.7565 8.22025 19.103 7.86025C19.4495 7.48825 20.0154 7.48825 20.3619 7.84825Z" fill="#1D283A"/>
</svg>
