<svg width="32" height="32" viewBox="0 0 32 32" fill="none" xmlns="http://www.w3.org/2000/svg">
<path fill-rule="evenodd" clip-rule="evenodd" d="M17.246 15.9701H28.1113C28.834 15.9701 29.3993 16.5995 29.3273 17.3181C28.602 24.5528 22.106 30.0888 14.5087 29.2488C8.39533 28.5741 3.42599 23.6048 2.74999 17.4915C1.91266 9.89413 7.44599 3.3968 14.682 2.6728C15.402 2.6008 16.03 3.1648 16.03 3.88746V14.7555C16.03 15.4261 16.574 15.9701 17.246 15.9701ZM28.2227 13.7775H19.3333C18.72 13.7775 18.2227 13.2815 18.2227 12.6668V3.77746C18.2227 3.16413 18.72 2.6668 19.3333 2.6668C24.8467 2.6668 29.3333 7.15213 29.3333 12.6668C29.3333 13.2815 28.836 13.7775 28.2227 13.7775Z" fill="#F08E5B"/>
</svg>
