<svg width="36" height="36" viewBox="0 0 36 36" fill="none" xmlns="http://www.w3.org/2000/svg">
<path fill-rule="evenodd" clip-rule="evenodd" d="M12 12H24C24.828 12 25.5 11.3295 25.5 10.5V4.5C25.5 3.6705 24.828 3 24 3H12C11.172 3 10.5 3.6705 10.5 4.5V10.5C10.5 11.3295 11.172 12 12 12ZM27 10.5V6C29.481 6 31.5 8.019 31.5 10.5V28.5C31.5 30.981 29.481 33 27 33H9C6.519 33 4.5 30.981 4.5 28.5V10.5C4.5 8.019 6.519 6 9 6V10.5C9 12.1545 10.3455 13.5 12 13.5H24C25.6545 13.5 27 12.1545 27 10.5Z" fill="#ACA9FF"/>
</svg>
